<!-- icon666.com - MILLIONS vector ICONS FREE --><svg id="Layer_1" enable-background="new 0 0 152 152" viewBox="0 0 152 152" xmlns="http://www.w3.org/2000/svg"><path d="m93.2 80.5-11.5-4.5 11.6-4.5c.6-.2 1-.9.9-1.5-.2-1.3-.8-2.5-1.5-3.6-.6-1.2-1.4-2.2-2.4-3.1-.5-.4-1.2-.4-1.7 0l-9.7 7.8 2-12.3c.2-.7-.2-1.3-.8-1.5-1.2-.5-2.6-.7-3.9-.6-1.3-.1-2.7.1-3.9.6-.6.2-1 .9-.8 1.5l2 12.3-9.7-7.8c-.5-.5-1.2-.5-1.7 0-1 .8-1.8 1.9-2.4 3.1-.8 1.1-1.3 2.3-1.6 3.6-.1.7.3 1.3.9 1.5l11.4 4.5-11.6 4.5c-.6.2-1 .9-.9 1.5.2 1.3.7 2.5 1.5 3.6.6 1.2 1.4 2.2 2.4 3.1.5.4 1.2.4 1.7 0l9.7-7.8-2 12.3c-.2.7.2 1.3.8 1.6 1.3.4 2.6.6 3.9.5 1.3.1 2.7-.1 3.9-.5.6-.2 1-.9.8-1.6l-2-12.3 9.7 7.8c.5.4 1.2.4 1.8 0 1-.8 1.8-1.8 2.4-3 .8-1.1 1.3-2.3 1.6-3.6.1-.8-.2-1.4-.9-1.6z" fill="#000000" style="fill: rgb(255, 0, 0);"></path></svg>