<!-- icon666.com - MILLIONS vector ICONS FREE --><svg id="Capa_1" enable-background="new 0 0 512.029 512.029" viewBox="0 0 512.029 512.029" xmlns="http://www.w3.org/2000/svg"><g><circle cx="224.015" cy="224.008" fill="#6fd7a3" r="224"></circle><path d="m32.015 224.008c0-118.332 91.756-215.233 208-223.437-130.262-9.194-240 93.897-240 223.437 0 129.544 109.741 232.63 240 223.437-116.245-8.204-208-105.105-208-223.437z" fill="#3ec3a4"></path><path d="m412.844 224.007c0 2.621 3.118 5.23 3.014 7.825-4.002 99.85-84.259 180.074-184.123 184.023-2.561.101-5.135-2.324-7.72-2.324-2.588 0-5.164 2.425-7.727 2.324-47.193-1.868-90.008-20.77-122.464-50.728-1.938-1.788-1.409-6.796-3.272-8.662-1.782-1.785-5.957-.425-7.668-2.279-29.932-32.433-48.824-75.208-50.713-122.358-.104-2.594 3.101-5.201 3.101-7.821 0-2.587-3.207-5.161-3.105-7.723 1.867-47.195 20.769-90.01 50.728-122.467 1.818-1.969 6.135-.69 8.033-2.581 1.752-1.746 1.078-6.669 2.896-8.347 32.456-29.959 75.271-48.861 122.466-50.729 2.562-.101 5.137 2.323 7.724 2.323 2.588 0 5.164-2.424 7.726-2.323 47.165 1.867 89.955 20.747 122.405 50.673 1.919 1.77.635 5.713 2.48 7.558 1.83 1.831 6.791 1.564 8.547 3.467 29.937 32.453 48.824 75.253 50.69 122.429.101 2.561-3.018 5.135-3.018 7.72z" fill="#eaf6ff"></path><path d="m62.92 224.008c0-100.837 77.734-183.517 176.547-191.386-2.549-.203-5.111-.356-7.687-.459s-5.165 2.321-7.766 2.321c-2.588 0-5.163-2.424-7.726-2.323-47.215 1.869-90.047 20.787-122.508 50.769-1.868 1.725-1.054 6.51-2.852 8.307-1.832 1.831-6.274.676-8.031 2.58-29.971 32.47-48.877 75.308-50.731 122.526-.1 2.543 3.108 5.098 3.108 7.666 0 2.587-3.207 5.163-3.105 7.725 1.867 47.194 20.77 90.008 50.727 122.465 1.677 1.817 5.912.516 7.657 2.267 1.892 1.898 1.301 6.843 3.271 8.662 32.456 29.958 75.271 48.86 122.465 50.728 2.563.101 5.139-2.324 7.727-2.324 2.586 0 5.159 2.425 7.72 2.324 2.591-.103 5.169-.257 7.733-.461-98.814-7.871-176.549-90.551-176.549-191.387z" fill="#d8ecfe"></path><g><circle cx="400.015" cy="400.008" fill="#ef6062" r="112"></circle><path d="m318.92 400.008c0-56.613 42.004-103.415 96.547-110.942-5.051-.697-10.21-1.058-15.453-1.058-61.856 0-112 50.144-112 112 0 67.612 59.669 120.298 127.453 110.942-54.543-7.527-96.547-54.329-96.547-110.942z" fill="#ea4952"></path><g><path d="m400.015 422.441c-9.017 0-16.514-6.94-17.209-15.93l-4.843-62.681c-.993-12.848 9.165-23.822 22.052-23.822 12.887 0 23.045 10.973 22.052 23.822l-4.843 62.681c-.695 8.989-8.193 15.93-17.209 15.93z" fill="#eaf6ff"></path><path d="m403.41 406.51-4.843-62.681c-.706-9.129 4.218-17.311 11.75-21.283-15.225-8.03-33.702 3.829-32.354 21.283l4.843 62.681c1.051 13.605 16.714 20.559 27.511 12.519-3.875-2.884-6.509-7.365-6.907-12.519z" fill="#d8ecfe"></path><circle cx="400.015" cy="464.008" fill="#eaf6ff" r="16"></circle><path d="m410.316 451.765c-10.299-8.676-26.302-1.403-26.302 12.243 0 13.64 16 20.921 26.302 12.242-7.603-6.404-7.591-18.09 0-24.485z" fill="#d8ecfe"></path></g></g><path d="m298.654 216.281h-66.913v-104.273c0-4.268-3.459-7.726-7.726-7.726s-7.726 3.459-7.726 7.726c.028 116.942-.068 109.899.075 110.922-.652 4.667 2.968 8.804 7.651 8.804h74.639c4.268 0 7.726-3.459 7.726-7.726s-3.459-7.727-7.726-7.727z" fill="#565f64"></path><circle cx="224.015" cy="224.008" fill="#ef6062" r="16"></circle><g fill="#565f64"><path d="m216.288 32.161v31.847c0 4.268 3.459 7.726 7.726 7.726s7.726-3.459 7.726-7.726v-31.847c-5.163-.204-10.281-.204-15.452 0z"></path><path d="m354.206 82.889-22.518 22.518c-3.017 3.017-3.017 7.91.001 10.927 3.017 3.017 7.908 3.017 10.927-.001l22.516-22.518c-3.495-3.785-7.14-7.431-10.926-10.926z"></path><path d="m376.288 224.007c0 4.268 3.459 7.726 7.726 7.726h31.847c.204-5.164.204-10.282 0-15.453h-31.847c-4.267.001-7.726 3.46-7.726 7.727z"></path><path d="m82.896 93.817 22.518 22.518c3.019 3.017 7.909 3.016 10.928 0 3.017-3.018 3.017-7.91 0-10.928l-22.518-22.518c-3.787 3.495-7.433 7.141-10.928 10.928z"></path><path d="m32.168 231.734h31.847c4.268 0 7.726-3.459 7.726-7.726s-3.459-7.726-7.726-7.726h-31.847c-.101 2.563-.153 5.139-.153 7.727 0 2.586.051 5.162.153 7.725z"></path><path d="m105.415 331.681-22.518 22.518c3.495 3.786 7.14 7.432 10.927 10.927l22.518-22.516c3.018-3.017 3.018-7.91.001-10.927-3.019-3.019-7.911-3.018-10.928-.002z"></path><path d="m224.014 376.281c-4.268 0-7.726 3.459-7.726 7.726v31.847c5.164.204 10.282.205 15.453 0v-31.847c0-4.267-3.459-7.726-7.727-7.726z"></path></g></g></svg>